<svg id="napolitann_1x" data-name="napolitann@1x" xmlns="http://www.w3.org/2000/svg" viewBox="0 0 64 64">
  <title>napolitann@1x</title>
  <g id="_레이어_2" data-name="&lt;레이어&gt;">
    <path d="M52,36a20,20,0,0,0-40,0v6H52Z" fill="#f96"/>
    <path d="M16,36a16,16,0,0,1,32,0v6H16Z" fill="#f96"/>
    <path d="M44,36a12,12,0,0,0-24,0v6H44Z" fill="#f96"/>
    <path d="M32,16.25A19.772,19.772,0,0,1,51.75,36v5.75H12.25V36A19.772,19.772,0,0,1,32,16.25M32,16A20,20,0,0,0,12,36v6H52V36A20,20,0,0,0,32,16Z" fill="#630"/>
    <path d="M32,20.25A15.768,15.768,0,0,1,47.75,36v5.75H16.25V36A15.768,15.768,0,0,1,32,20.25M32,20A16,16,0,0,0,16,36v6H48V36A16,16,0,0,0,32,20Z" fill="#630"/>
    <path d="M32,24.25A11.763,11.763,0,0,1,43.75,36v5.75H20.25V36A11.763,11.763,0,0,1,32,24.25M32,24A12,12,0,0,0,20,36v6H44V36A12,12,0,0,0,32,24Z" fill="#630"/>
  </g>
  <g id="_레이어_3" data-name="&lt;레이어&gt;">
    <path d="M52,40a10,10,0,0,0-20,0" fill="#f63"/>
    <path d="M36,40a6,6,0,0,1,12,0" fill="#f63"/>
    <path d="M44,40a2,2,0,0,0-4,0" fill="#f63"/>
    <path d="M42,30.25A9.761,9.761,0,0,1,51.75,40v1.75H32.25V40A9.761,9.761,0,0,1,42,30.25M42,30A10,10,0,0,0,32,40v2H52V40A10,10,0,0,0,42,30Z" fill="#630"/>
    <path d="M42,34.25A5.757,5.757,0,0,1,47.75,40v1.75H36.25V40A5.757,5.757,0,0,1,42,34.25M42,34a6,6,0,0,0-6,6v2H48V40a6,6,0,0,0-6-6Z" fill="#630"/>
    <path d="M42,38.25A1.752,1.752,0,0,1,43.75,40v1.75h-3.5V40A1.752,1.752,0,0,1,42,38.25M42,38a2,2,0,0,0-2,2v2h4V40a2,2,0,0,0-2-2Z" fill="#630"/>
  </g>
  <g id="_레이어_4" data-name="&lt;레이어&gt;">
    <path d="M12,40a14,14,0,0,1,28,0" fill="#fc3"/>
    <path d="M16,40a10,10,0,0,1,20,0" fill="#fc3"/>
    <path d="M20,40a6,6,0,0,1,12,0" fill="#fc3"/>
    <path d="M26,26.25A13.766,13.766,0,0,1,39.75,40v1.75H12.25V40A13.766,13.766,0,0,1,26,26.25M26,26A14,14,0,0,0,12,40v2H40V40A14,14,0,0,0,26,26Z" fill="#630"/>
    <path d="M26,30.25A9.761,9.761,0,0,1,35.75,40v1.75H16.25V40A9.761,9.761,0,0,1,26,30.25M26,30A10,10,0,0,0,16,40v2H36V40A10,10,0,0,0,26,30Z" fill="#630"/>
    <path d="M26,34.25A5.757,5.757,0,0,1,31.75,40v1.75H20.25V40A5.757,5.757,0,0,1,26,34.25M26,34a6,6,0,0,0-6,6v2H32V40a6,6,0,0,0-6-6Z" fill="#630"/>
  </g>
  <g id="_레이어_5" data-name="&lt;레이어&gt;">
    <path d="M32,40a4,4,0,0,1,8,0" fill="#f66"/>
    <path d="M36,36.25A3.754,3.754,0,0,1,39.75,40v1.75h-7.5V40A3.754,3.754,0,0,1,36,36.25M36,36a4,4,0,0,0-4,4v2h8V40a4,4,0,0,0-4-4Z" fill="#630"/>
  </g>
  <g id="_레이어_6" data-name="&lt;레이어&gt;">
    <polygon points="16 48 8 40 56 40 48 48 16 48" fill="#c30"/>
    <path d="M55.4,40.25l-7.5,7.5H16.1l-7.5-7.5H55.4M56,40H8l8,8H48l8-8Z" fill="#630"/>
  </g>
</svg>
