<svg xmlns="http://www.w3.org/2000/svg" viewBox="0 0 64 64">
  <title>napolitann@8x</title>
  <g id="napolitann_8x" data-name="napolitann@8x">
    <g id="_레이어_20" data-name="&lt;레이어&gt;">
      <path d="M52,36a20,20,0,0,0-40,0v6H52Z" fill="#f96"/>
      <path d="M16,36a16,16,0,0,1,32,0v6H16Z" fill="#f96"/>
      <path d="M44,36a12,12,0,0,0-24,0v6H44Z" fill="#f96"/>
      <path d="M32,18A18.02,18.02,0,0,1,50,36v4H14V36A18.02,18.02,0,0,1,32,18m0-2A20,20,0,0,0,12,36v6H52V36A20,20,0,0,0,32,16Z" fill="#630"/>
      <path d="M32,22A14.016,14.016,0,0,1,46,36v4H18V36A14.016,14.016,0,0,1,32,22m0-2A16,16,0,0,0,16,36v6H48V36A16,16,0,0,0,32,20Z" fill="#630"/>
      <path d="M32,26A10.011,10.011,0,0,1,42,36v4H22V36A10.011,10.011,0,0,1,32,26m0-2A12,12,0,0,0,20,36v6H44V36A12,12,0,0,0,32,24Z" fill="#630"/>
    </g>
    <g id="_레이어_21" data-name="&lt;레이어&gt;">
      <path d="M52,40a10,10,0,0,0-20,0" fill="#f63"/>
      <path d="M36,40a6,6,0,0,1,12,0" fill="#f63"/>
      <path d="M44,40a2,2,0,0,0-4,0" fill="#f63"/>
      <path d="M42,32a8.009,8.009,0,0,1,8,8H34a8.009,8.009,0,0,1,8-8m0-2A10,10,0,0,0,32,40v2H52V40A10,10,0,0,0,42,30Z" fill="#630"/>
      <path d="M42,36a4,4,0,0,1,4,4H38a4,4,0,0,1,4-4m0-2a6,6,0,0,0-6,6v2H48V40a6,6,0,0,0-6-6Z" fill="#630"/>
      <path d="M42,38a2,2,0,0,0-2,2v2h4V40a2,2,0,0,0-2-2Z" fill="#630"/>
    </g>
    <g id="_레이어_22" data-name="&lt;레이어&gt;">
      <path d="M12,40a14,14,0,0,1,28,0" fill="#fc3"/>
      <path d="M16,40a10,10,0,0,1,20,0" fill="#fc3"/>
      <path d="M20,40a6,6,0,0,1,12,0" fill="#fc3"/>
      <path d="M26,28A12.014,12.014,0,0,1,38,40H14A12.014,12.014,0,0,1,26,28m0-2A14,14,0,0,0,12,40v2H40V40A14,14,0,0,0,26,26Z" fill="#630"/>
      <path d="M26,32a8.009,8.009,0,0,1,8,8H18a8.009,8.009,0,0,1,8-8m0-2A10,10,0,0,0,16,40v2H36V40A10,10,0,0,0,26,30Z" fill="#630"/>
      <path d="M26,36a4,4,0,0,1,4,4H22a4,4,0,0,1,4-4m0-2a6,6,0,0,0-6,6v2H32V40a6,6,0,0,0-6-6Z" fill="#630"/>
    </g>
    <g id="_레이어_23" data-name="&lt;레이어&gt;">
      <path d="M32,40a4,4,0,0,1,8,0" fill="#f66"/>
      <path d="M36,38a2,2,0,0,1,2,2H34a2,2,0,0,1,2-2m0-2a4,4,0,0,0-4,4v2h8V40a4,4,0,0,0-4-4Z" fill="#630"/>
    </g>
    <g id="_레이어_24" data-name="&lt;레이어&gt;">
      <polygon points="16 48 8 40 56 40 48 48 16 48" fill="#c30"/>
      <path d="M51.172,42l-4,4H16.828l-4-4H51.172M56,40H8l8,8H48l8-8Z" fill="#630"/>
    </g>
  </g>
</svg>
