<svg xmlns="http://www.w3.org/2000/svg" viewBox="0 0 48 48">
  <title>napolitann@2x</title>
  <g id="napolitann_2x" data-name="napolitann@2x">
    <g>
      <path d="M44,28A20,20,0,0,0,4,28v6H44Z" fill="#f96"/>
      <path d="M8,28a16,16,0,0,1,32,0v6H8Z" fill="#f96"/>
      <path d="M36,28a12,12,0,0,0-24,0v6H36Z" fill="#f96"/>
      <path d="M24,8.5A19.522,19.522,0,0,1,43.5,28v5.5H4.5V28A19.522,19.522,0,0,1,24,8.5M24,8A20,20,0,0,0,4,28v6H44V28A20,20,0,0,0,24,8Z" fill="#630"/>
      <path d="M24,12.5A15.518,15.518,0,0,1,39.5,28v5.5H8.5V28A15.518,15.518,0,0,1,24,12.5m0-.5A16,16,0,0,0,8,28v6H40V28A16,16,0,0,0,24,12Z" fill="#630"/>
      <path d="M24,16.5A11.513,11.513,0,0,1,35.5,28v5.5h-23V28A11.513,11.513,0,0,1,24,16.5m0-.5A12,12,0,0,0,12,28v6H36V28A12,12,0,0,0,24,16Z" fill="#630"/>
    </g>
    <g>
      <path d="M44,32a10,10,0,0,0-20,0" fill="#f63"/>
      <path d="M28,32a6,6,0,0,1,12,0" fill="#f63"/>
      <path d="M36,32a2,2,0,0,0-4,0" fill="#f63"/>
      <path d="M34,22.5A9.511,9.511,0,0,1,43.5,32v1.5h-19V32A9.511,9.511,0,0,1,34,22.5m0-.5A10,10,0,0,0,24,32v2H44V32A10,10,0,0,0,34,22Z" fill="#630"/>
      <path d="M34,26.5A5.506,5.506,0,0,1,39.5,32v1.5h-11V32A5.506,5.506,0,0,1,34,26.5m0-.5a6,6,0,0,0-6,6v2H40V32a6,6,0,0,0-6-6Z" fill="#630"/>
      <path d="M34,30.5A1.5,1.5,0,0,1,35.5,32v1.5h-3V32A1.5,1.5,0,0,1,34,30.5m0-.5a2,2,0,0,0-2,2v2h4V32a2,2,0,0,0-2-2Z" fill="#630"/>
    </g>
    <g>
      <path d="M4,32a14,14,0,0,1,28,0" fill="#fc3"/>
      <path d="M8,32a10,10,0,0,1,20,0" fill="#fc3"/>
      <path d="M12,32a6,6,0,0,1,12,0" fill="#fc3"/>
      <path d="M18,18.5A13.515,13.515,0,0,1,31.5,32v1.5H4.5V32A13.515,13.515,0,0,1,18,18.5m0-.5A14,14,0,0,0,4,32v2H32V32A14,14,0,0,0,18,18Z" fill="#630"/>
      <path d="M18,22.5A9.511,9.511,0,0,1,27.5,32v1.5H8.5V32A9.511,9.511,0,0,1,18,22.5m0-.5A10,10,0,0,0,8,32v2H28V32A10,10,0,0,0,18,22Z" fill="#630"/>
      <path d="M18,26.5A5.506,5.506,0,0,1,23.5,32v1.5h-11V32A5.506,5.506,0,0,1,18,26.5m0-.5a6,6,0,0,0-6,6v2H24V32a6,6,0,0,0-6-6Z" fill="#630"/>
    </g>
    <g>
      <path d="M24,32a4,4,0,0,1,8,0" fill="#f66"/>
      <path d="M28,28.5A3.5,3.5,0,0,1,31.5,32v1.5h-7V32A3.5,3.5,0,0,1,28,28.5m0-.5a4,4,0,0,0-4,4v2h8V32a4,4,0,0,0-4-4Z" fill="#630"/>
    </g>
    <g>
      <polygon points="8 40 0 32 48 32 40 40 8 40" fill="#c30"/>
      <path d="M46.793,32.5l-7,7H8.207l-7-7H46.793M48,32H0l8,8H40l8-8Z" fill="#630"/>
    </g>
  </g>
</svg>
