<svg xmlns="http://www.w3.org/2000/svg" viewBox="0 0 48 48">
  <title>napolitann@4x</title>
  <g id="napolitann_4x" data-name="napolitann@4x">
    <g>
      <path d="M44,28A20,20,0,0,0,4,28v6H44Z" fill="#f96"/>
      <path d="M8,28a16,16,0,0,1,32,0v6H8Z" fill="#f96"/>
      <path d="M36,28a12,12,0,0,0-24,0v6H36Z" fill="#f96"/>
      <path d="M24,9A19.022,19.022,0,0,1,43,28v5H5V28A19.022,19.022,0,0,1,24,9m0-1A20,20,0,0,0,4,28v6H44V28A20,20,0,0,0,24,8Z" fill="#630"/>
      <path d="M24,13A15.017,15.017,0,0,1,39,28v5H9V28A15.017,15.017,0,0,1,24,13m0-1A16,16,0,0,0,8,28v6H40V28A16,16,0,0,0,24,12Z" fill="#630"/>
      <path d="M24,17A11.012,11.012,0,0,1,35,28v5H13V28A11.012,11.012,0,0,1,24,17m0-1A12,12,0,0,0,12,28v6H36V28A12,12,0,0,0,24,16Z" fill="#630"/>
    </g>
    <g>
      <path d="M44,32a10,10,0,0,0-20,0" fill="#f63"/>
      <path d="M28,32a6,6,0,0,1,12,0" fill="#f63"/>
      <path d="M36,32a2,2,0,0,0-4,0" fill="#f63"/>
      <path d="M34,23a9.01,9.01,0,0,1,9,9v1H25V32a9.01,9.01,0,0,1,9-9m0-1A10,10,0,0,0,24,32v2H44V32A10,10,0,0,0,34,22Z" fill="#630"/>
      <path d="M34,27a5.006,5.006,0,0,1,5,5v1H29V32a5.006,5.006,0,0,1,5-5m0-1a6,6,0,0,0-6,6v2H40V32a6,6,0,0,0-6-6Z" fill="#630"/>
      <path d="M34,31a1,1,0,0,1,1,1v1H33V32a1,1,0,0,1,1-1m0-1a2,2,0,0,0-2,2v2h4V32a2,2,0,0,0-2-2Z" fill="#630"/>
    </g>
    <g>
      <path d="M4,32a14,14,0,0,1,28,0" fill="#fc3"/>
      <path d="M8,32a10,10,0,0,1,20,0" fill="#fc3"/>
      <path d="M12,32a6,6,0,0,1,12,0" fill="#fc3"/>
      <path d="M18,19A13.015,13.015,0,0,1,31,32v1H5V32A13.015,13.015,0,0,1,18,19m0-1A14,14,0,0,0,4,32v2H32V32A14,14,0,0,0,18,18Z" fill="#630"/>
      <path d="M18,23a9.01,9.01,0,0,1,9,9v1H9V32a9.01,9.01,0,0,1,9-9m0-1A10,10,0,0,0,8,32v2H28V32A10,10,0,0,0,18,22Z" fill="#630"/>
      <path d="M18,27a5.006,5.006,0,0,1,5,5v1H13V32a5.006,5.006,0,0,1,5-5m0-1a6,6,0,0,0-6,6v2H24V32a6,6,0,0,0-6-6Z" fill="#630"/>
    </g>
    <g>
      <path d="M24,32a4,4,0,0,1,8,0" fill="#f66"/>
      <path d="M28,29a3,3,0,0,1,3,3v1H25V32a3,3,0,0,1,3-3m0-1a4,4,0,0,0-4,4v2h8V32a4,4,0,0,0-4-4Z" fill="#630"/>
    </g>
    <g>
      <polygon points="8 40 0 32 48 32 40 40 8 40" fill="#c30"/>
      <path d="M45.586,33l-6,6H8.414l-6-6H45.586M48,32H0l8,8H40l8-8Z" fill="#630"/>
    </g>
  </g>
</svg>
