<svg xmlns="http://www.w3.org/2000/svg" viewBox="0 0 64 64">
  <title>napolitann@4x</title>
  <g id="napolitann_4x" data-name="napolitann@4x">
    <g id="_레이어_14" data-name="&lt;레이어&gt;">
      <path d="M52,36a20,20,0,0,0-40,0v6H52Z" fill="#f96"/>
      <path d="M16,36a16,16,0,0,1,32,0v6H16Z" fill="#f96"/>
      <path d="M44,36a12,12,0,0,0-24,0v6H44Z" fill="#f96"/>
      <path d="M32,17A19.022,19.022,0,0,1,51,36v5H13V36A19.022,19.022,0,0,1,32,17m0-1A20,20,0,0,0,12,36v6H52V36A20,20,0,0,0,32,16Z" fill="#630"/>
      <path d="M32,21A15.017,15.017,0,0,1,47,36v5H17V36A15.017,15.017,0,0,1,32,21m0-1A16,16,0,0,0,16,36v6H48V36A16,16,0,0,0,32,20Z" fill="#630"/>
      <path d="M32,25A11.012,11.012,0,0,1,43,36v5H21V36A11.012,11.012,0,0,1,32,25m0-1A12,12,0,0,0,20,36v6H44V36A12,12,0,0,0,32,24Z" fill="#630"/>
    </g>
    <g id="_레이어_15" data-name="&lt;레이어&gt;">
      <path d="M52,40a10,10,0,0,0-20,0" fill="#f63"/>
      <path d="M36,40a6,6,0,0,1,12,0" fill="#f63"/>
      <path d="M44,40a2,2,0,0,0-4,0" fill="#f63"/>
      <path d="M42,31a9.01,9.01,0,0,1,9,9v1H33V40a9.01,9.01,0,0,1,9-9m0-1A10,10,0,0,0,32,40v2H52V40A10,10,0,0,0,42,30Z" fill="#630"/>
      <path d="M42,35a5.006,5.006,0,0,1,5,5v1H37V40a5.006,5.006,0,0,1,5-5m0-1a6,6,0,0,0-6,6v2H48V40a6,6,0,0,0-6-6Z" fill="#630"/>
      <path d="M42,39a1,1,0,0,1,1,1v1H41V40a1,1,0,0,1,1-1m0-1a2,2,0,0,0-2,2v2h4V40a2,2,0,0,0-2-2Z" fill="#630"/>
    </g>
    <g id="_레이어_16" data-name="&lt;레이어&gt;">
      <path d="M12,40a14,14,0,0,1,28,0" fill="#fc3"/>
      <path d="M16,40a10,10,0,0,1,20,0" fill="#fc3"/>
      <path d="M20,40a6,6,0,0,1,12,0" fill="#fc3"/>
      <path d="M26,27A13.015,13.015,0,0,1,39,40v1H13V40A13.015,13.015,0,0,1,26,27m0-1A14,14,0,0,0,12,40v2H40V40A14,14,0,0,0,26,26Z" fill="#630"/>
      <path d="M26,31a9.01,9.01,0,0,1,9,9v1H17V40a9.01,9.01,0,0,1,9-9m0-1A10,10,0,0,0,16,40v2H36V40A10,10,0,0,0,26,30Z" fill="#630"/>
      <path d="M26,35a5.006,5.006,0,0,1,5,5v1H21V40a5.006,5.006,0,0,1,5-5m0-1a6,6,0,0,0-6,6v2H32V40a6,6,0,0,0-6-6Z" fill="#630"/>
    </g>
    <g id="_레이어_17" data-name="&lt;레이어&gt;">
      <path d="M32,40a4,4,0,0,1,8,0" fill="#f66"/>
      <path d="M36,37a3,3,0,0,1,3,3v1H33V40a3,3,0,0,1,3-3m0-1a4,4,0,0,0-4,4v2h8V40a4,4,0,0,0-4-4Z" fill="#630"/>
    </g>
    <g id="_레이어_18" data-name="&lt;레이어&gt;">
      <polygon points="16 48 8 40 56 40 48 48 16 48" fill="#c30"/>
      <path d="M53.586,41l-6,6H16.414l-6-6H53.586M56,40H8l8,8H48l8-8Z" fill="#630"/>
    </g>
  </g>
</svg>
